<?xml version="1.0" encoding="utf-8"?>
<!DOCTYPE svg PUBLIC "-//W3C//DTD SVG 1.1 Tiny//EN" "http://www.w3.org/Graphics/SVG/1.1/DTD/svg11-tiny.dtd">
<svg version="1.1" baseProfile="tiny" id="レイヤー_1"
	 xmlns="http://www.w3.org/2000/svg" xmlns:xlink="http://www.w3.org/1999/xlink" x="0px" y="0px" width="779.528px"
	 height="212.599px" viewBox="0 0 779.528 212.599" xml:space="preserve">
<g>
	<g>
		<path fill="#FFFFFF" stroke="#FFFFFF" stroke-miterlimit="10" d="M510.149,125.822h46.604V58.384H515.75v-6.497h94.773v6.497
			h-41.898v67.438h47.053v6.272H510.149V125.822z"/>
		<path fill="#FFFFFF" stroke="#FFFFFF" stroke-miterlimit="10" d="M630.356,112.081c2.691-10.083,3.25-20.5,3.25-29.127V57.638
			h84.689v23.748H684.02v10.307h43.463v5.825h-50.859c-0.449,3.248-1.006,6.386-1.682,9.411h41.002
			c-0.785,6.945-1.568,16.242-2.91,22.18c-2.465,8.516-2.578,10.194-12.662,10.867h-3.246c-3.811,0-15.641-0.273-15.641-0.273
			c0-2.284-0.043-3.545-0.143-5.436c0,0,14.762,0.202,16.568,0.221c0.557,0.006,0.783-0.113,1.232-0.562
			c1.006-0.897,2.016-2.912,2.801-6.834c0.67-3.359,1.342-8.177,2.012-14.562h-30.691c-4.594,12.993-12.996,21.62-30.922,26.884
			l-4.926,1.459l-0.785-1.682c-0.674-1.232-1.355-3.203-2.057-4.545c20.992-7.101,27.373-15.731,30.396-37.129H644.36
			c-1.568,16.019-5.488,28.232-14.004,38.873l-2.688,3.25l-3.363-3.25c-1.006-1.008-2.664-2.755-3.93-4.035
			C624.674,125.817,628.34,119.699,630.356,112.081z M625.09,43.299h99.482v6.048H625.09V43.299z M672.59,91.692V81.386h-27.559
			v1.682c0,2.801,0,5.602-0.109,8.625H672.59z M706.87,75.784V63.237h-61.838v12.547H706.87z"/>
		<path fill="#FFFFFF" stroke="#FFFFFF" stroke-miterlimit="10" d="M82.626,69.089c3.473-3.809,6.498-6.161,10.195-6.161
			c3.136,0,6.721,1.568,10.643,5.042c17.028,15.123,33.832,33.047,50.523,51.42l-9.858,10.755
			c-15.123-19.271-32.599-43.803-46.491-57.357c-1.904-1.795-3.473-2.578-4.593-2.578c-1.232,0-2.577,0.896-4.369,3.249
			c-7.729,10.306-18.484,28.119-25.317,39.098l-11.315-11.539C62.798,91.831,71.088,81.636,82.626,69.089z M122.396,56.431
			c4.929,4.256,11.09,11.874,14.339,17.027l-8.065,3.36c-2.241-4.929-7.619-14.115-10.531-18.597L122.396,56.431z M137.071,50.829
			c4.929,4.256,11.091,11.874,14.339,17.027l-8.066,3.362c-2.24-4.931-7.618-14.117-10.53-18.599L137.071,50.829z"/>
		<path fill="#FFFFFF" stroke="#FFFFFF" stroke-miterlimit="10" d="M241.229,75.551l3.09,5.435
			c-11.506,26.53-39.421,50.716-75.114,57.747l-7.671-11.721C200.53,123.709,226.739,101.121,241.229,75.551z M167.075,57.972
			c9.482,3.302,25.464,14.17,33.028,20.563l-9.056,9.271c-6.712-9.057-18.751-20.138-27.274-26.21L167.075,57.972z"/>
		<path fill="#FFFFFF" stroke="#FFFFFF" stroke-miterlimit="10" d="M250.076,87.279c2.793,0.323,6.556,0.646,10.104,0.646h29.879
			v-19.24c-10.854,1.075-21.925,1.396-29.879,1.506l-1.397-5.053c23.217-1.184,48.26-6.127,62.77-13.758l7.631,10.104
			c-2.902,0.753-5.911,1.505-7.631,1.935c-5.266,1.396-12.468,2.794-19.563,3.869v20.638h27.088c2.471,0,6.985-0.215,9.456-0.431
			v6.772c-2.686-0.215-6.232-0.324-9.241-0.324h-27.41c-0.861,21.282-12.576,36.975-30.741,45.574l-4.943-3.764
			c13.542-6.878,22.785-19.776,23.646-41.811h-29.558c-3.547,0-7.31,0.109-10.211,0.324V87.279z"/>
		<path fill="#FFFFFF" stroke="#FFFFFF" stroke-miterlimit="10" d="M361.91,94.956c-1.238-4.338-2.567-8.676-3.009-10.357
			c-0.797-2.746-1.506-4.78-2.392-6.729l9.916-2.301c0.355,2.035,0.708,4.07,1.505,6.816c0.708,2.479,2.035,6.994,3.1,10.889
			c12.479-2.303,26.203-5.047,29.477-5.667c1.42-0.266,5.58-1.415,6.643-1.859l3.453,2.569
			c-3.188,10.446-10.715,18.855-21.779,26.291l-3.895-2.214c6.196-5.575,12.217-14.251,13.631-19.563
			c-3.807,0.707-15.491,2.921-26.202,5.045c3.716,13.369,7.877,28.771,9.205,33.286c0.532,1.86,1.685,5.135,2.392,7.082
			l-10.182,2.391c-0.354-2.214-0.974-4.868-1.681-7.436c-1.24-4.161-5.488-20.627-8.941-33.463
			c-8.676,1.771-14.251,2.921-17.352,3.628l-1.504-5.575C352.261,96.903,352.968,96.55,361.91,94.956z"/>
		<path fill="#FFFFFF" stroke="#FFFFFF" stroke-miterlimit="10" d="M417.151,88.32c3.809,0.336,10.643,0.673,17.027,0.673h59.936
			c5.824,0,9.971-0.448,12.994-0.673v8.179c-2.801-0.113-7.619-0.449-12.885-0.449h-60.045c-6.498,0-13.107,0.225-17.027,0.449
			V88.32z"/>
	</g>
	<g>
		<line fill="#FFFFFF" stroke="#FFFFFF" stroke-miterlimit="10" x1="39.668" y1="146.063" x2="739.86" y2="146.063"/>
		<line display="none" fill="#FFFFFF" stroke="#FFFFFF" stroke-miterlimit="10" x1="39.668" y1="35.433" x2="739.86" y2="35.433"/>
		<line fill="#FFFFFF" stroke="#FFFFFF" stroke-miterlimit="10" x1="39.668" y1="173.137" x2="739.86" y2="173.137"/>
	</g>
	<g>
		<path fill="#FFFFFF" stroke="#FFFFFF" stroke-miterlimit="10" d="M245.169,149.718h1.386l4.104,17.776h0.052l4.104-17.776h1.333
			l-4.626,19.083h-1.726L245.169,149.718z"/>
		<path fill="#FFFFFF" stroke="#FFFFFF" stroke-miterlimit="10" d="M263.834,154.946c1.533,0,2.67,0.54,3.411,1.621
			c0.741,1.08,1.111,2.823,1.111,5.228c0,0.244-0.009,0.41-0.026,0.497h-8.025c0.017,1.986,0.357,3.434,1.02,4.339
			c0.662,0.906,1.655,1.359,2.98,1.359c1.098,0,2.248-0.261,3.45-0.784v1.15c-1.237,0.471-2.405,0.706-3.502,0.706
			c-3.538,0-5.307-2.353-5.307-7.059c0-2.439,0.4-4.226,1.203-5.358C260.95,155.513,262.178,154.946,263.834,154.946z
			 M260.305,161.22h6.718c-0.018-1.951-0.313-3.307-0.889-4.064s-1.342-1.137-2.3-1.137c-1.167,0-2.03,0.4-2.588,1.202
			C260.688,158.022,260.375,159.355,260.305,161.22z"/>
		<path fill="#FFFFFF" stroke="#FFFFFF" stroke-miterlimit="10" d="M272.408,155.913c1.255-0.645,2.649-0.967,4.183-0.967
			c1.76,0,2.984,0.322,3.672,0.967c0.688,0.646,1.033,1.761,1.033,3.347v9.541h-1.307v-9.541c0-1.186-0.248-2.018-0.745-2.497
			c-0.497-0.479-1.382-0.719-2.653-0.719c-1.063,0-2.013,0.235-2.85,0.706v12.051h-1.333V155.913z"/>
		<path fill="#FFFFFF" stroke="#FFFFFF" stroke-miterlimit="10" d="M285.086,155.73h2.875v-4.967h1.333v4.967h4.94v1.072h-4.94
			v8.338c0,1.134,0.161,1.887,0.484,2.262c0.322,0.375,0.98,0.562,1.973,0.562c0.837,0,1.577-0.112,2.222-0.34v1.15
			c-0.767,0.191-1.551,0.288-2.353,0.288c-1.395,0-2.353-0.271-2.875-0.811s-0.784-1.533-0.784-2.98v-8.469h-2.875V155.73z"/>
		<path fill="#FFFFFF" stroke="#FFFFFF" stroke-miterlimit="10" d="M299.856,155.208v9.672c0,1.15,0.23,1.952,0.692,2.404
			c0.462,0.454,1.276,0.68,2.444,0.68c1.081,0,2.03-0.209,2.849-0.627v-12.129h1.333v12.887c-1.186,0.646-2.58,0.968-4.183,0.968
			c-1.638,0-2.789-0.314-3.451-0.941c-0.663-0.627-0.993-1.708-0.993-3.241v-9.672H299.856z"/>
		<path fill="#FFFFFF" stroke="#FFFFFF" stroke-miterlimit="10" d="M320.376,156.044c-2.283,0-4.453,0.306-6.509,0.915v11.842
			h-1.333v-12.652c2.457-0.801,5.071-1.202,7.842-1.202V156.044z"/>
		<path fill="#FFFFFF" stroke="#FFFFFF" stroke-miterlimit="10" d="M329.186,154.946c1.533,0,2.67,0.54,3.411,1.621
			c0.741,1.08,1.111,2.823,1.111,5.228c0,0.244-0.009,0.41-0.026,0.497h-8.025c0.017,1.986,0.357,3.434,1.02,4.339
			c0.662,0.906,1.655,1.359,2.98,1.359c1.098,0,2.248-0.261,3.45-0.784v1.15c-1.237,0.471-2.405,0.706-3.502,0.706
			c-3.538,0-5.307-2.353-5.307-7.059c0-2.439,0.4-4.226,1.203-5.358C326.301,155.513,327.53,154.946,329.186,154.946z
			 M325.657,161.22h6.718c-0.018-1.951-0.313-3.307-0.889-4.064s-1.342-1.137-2.3-1.137c-1.167,0-2.03,0.4-2.588,1.202
			C326.04,158.022,325.726,159.355,325.657,161.22z"/>
		<path fill="#FFFFFF" stroke="#FFFFFF" stroke-miterlimit="10" d="M360.319,163.363c0,3.8-1.856,5.699-5.568,5.699
			c-1.29,0-2.571-0.166-3.842-0.497v-18.612c1.202-0.33,2.448-0.496,3.738-0.496c3.381,0,5.071,1.525,5.071,4.574
			c0,2.266-1.037,3.686-3.111,4.261v0.053c1.167,0.244,2.078,0.802,2.732,1.673C359.992,160.89,360.319,162.004,360.319,163.363z
			 M352.268,157.821h1.621c1.551,0,2.692-0.309,3.424-0.928c0.732-0.618,1.098-1.572,1.098-2.862c0-2.3-1.254-3.45-3.764-3.45
			c-0.802,0-1.595,0.104-2.379,0.313V157.821z M358.986,163.363c0-1.533-0.401-2.657-1.203-3.372
			c-0.802-0.714-2.056-1.071-3.764-1.071h-1.751v8.704c0.837,0.21,1.664,0.314,2.483,0.314
			C357.574,167.938,358.986,166.413,358.986,163.363z"/>
		<path fill="#FFFFFF" stroke="#FFFFFF" stroke-miterlimit="10" d="M365.208,155.208v9.672c0,1.15,0.23,1.952,0.692,2.404
			c0.462,0.454,1.276,0.68,2.444,0.68c1.081,0,2.03-0.209,2.849-0.627v-12.129h1.333v12.887c-1.186,0.646-2.58,0.968-4.183,0.968
			c-1.638,0-2.789-0.314-3.451-0.941c-0.663-0.627-0.993-1.708-0.993-3.241v-9.672H365.208z"/>
		<path fill="#FFFFFF" stroke="#FFFFFF" stroke-miterlimit="10" d="M381.571,154.946c1.307,0,2.544,0.183,3.712,0.549v1.124
			c-1.254-0.4-2.475-0.601-3.66-0.601c-2.074,0-3.11,0.775-3.11,2.326c0,0.662,0.209,1.216,0.627,1.66
			c0.418,0.444,1.194,0.832,2.327,1.163c1.621,0.471,2.749,1.023,3.385,1.66c0.636,0.636,0.954,1.512,0.954,2.627
			c0,1.15-0.396,2.039-1.189,2.666s-1.921,0.941-3.385,0.941c-1.359,0-2.666-0.279-3.921-0.837v-1.176
			c1.324,0.627,2.588,0.94,3.791,0.94c2.23,0,3.346-0.845,3.346-2.535c0-0.802-0.235-1.438-0.706-1.908
			c-0.471-0.471-1.299-0.88-2.483-1.229c-1.481-0.436-2.532-0.959-3.15-1.568c-0.619-0.61-0.928-1.412-0.928-2.405
			c0-1.08,0.379-1.917,1.137-2.51C379.075,155.243,380.16,154.946,381.571,154.946z"/>
		<path fill="#FFFFFF" stroke="#FFFFFF" stroke-miterlimit="10" d="M390.904,155.208h4.966v13.593h-1.359v-12.521h-3.606V155.208z
			 M394.25,151.94v-3.007h1.62v3.007H394.25z"/>
		<path fill="#FFFFFF" stroke="#FFFFFF" stroke-miterlimit="10" d="M403.111,155.913c1.255-0.645,2.648-0.967,4.183-0.967
			c1.76,0,2.984,0.322,3.673,0.967c0.688,0.646,1.032,1.761,1.032,3.347v9.541h-1.307v-9.541c0-1.186-0.249-2.018-0.745-2.497
			c-0.497-0.479-1.382-0.719-2.653-0.719c-1.063,0-2.013,0.235-2.85,0.706v12.051h-1.333V155.913z"/>
		<path fill="#FFFFFF" stroke="#FFFFFF" stroke-miterlimit="10" d="M420.677,154.946c1.533,0,2.671,0.54,3.411,1.621
			c0.741,1.08,1.111,2.823,1.111,5.228c0,0.244-0.009,0.41-0.026,0.497h-8.025c0.018,1.986,0.357,3.434,1.02,4.339
			c0.662,0.906,1.655,1.359,2.98,1.359c1.098,0,2.248-0.261,3.45-0.784v1.15c-1.237,0.471-2.404,0.706-3.503,0.706
			c-3.538,0-5.307-2.353-5.307-7.059c0-2.439,0.401-4.226,1.203-5.358C417.792,155.513,419.021,154.946,420.677,154.946z
			 M417.148,161.22h6.719c-0.018-1.951-0.313-3.307-0.889-4.064s-1.343-1.137-2.301-1.137c-1.168,0-2.03,0.4-2.588,1.202
			S417.217,159.355,417.148,161.22z"/>
		<path fill="#FFFFFF" stroke="#FFFFFF" stroke-miterlimit="10" d="M433.852,154.946c1.308,0,2.544,0.183,3.712,0.549v1.124
			c-1.255-0.4-2.475-0.601-3.659-0.601c-2.074,0-3.111,0.775-3.111,2.326c0,0.662,0.209,1.216,0.628,1.66
			c0.418,0.444,1.193,0.832,2.326,1.163c1.621,0.471,2.749,1.023,3.385,1.66c0.637,0.636,0.955,1.512,0.955,2.627
			c0,1.15-0.397,2.039-1.189,2.666c-0.794,0.627-1.922,0.941-3.386,0.941c-1.359,0-2.666-0.279-3.921-0.837v-1.176
			c1.324,0.627,2.588,0.94,3.79,0.94c2.23,0,3.347-0.845,3.347-2.535c0-0.802-0.235-1.438-0.706-1.908
			c-0.471-0.471-1.299-0.88-2.483-1.229c-1.481-0.436-2.531-0.959-3.15-1.568c-0.618-0.61-0.928-1.412-0.928-2.405
			c0-1.08,0.379-1.917,1.138-2.51C431.356,155.243,432.441,154.946,433.852,154.946z"/>
		<path fill="#FFFFFF" stroke="#FFFFFF" stroke-miterlimit="10" d="M446.922,154.946c1.308,0,2.544,0.183,3.712,0.549v1.124
			c-1.255-0.4-2.475-0.601-3.659-0.601c-2.074,0-3.111,0.775-3.111,2.326c0,0.662,0.209,1.216,0.628,1.66
			c0.418,0.444,1.193,0.832,2.326,1.163c1.621,0.471,2.749,1.023,3.385,1.66c0.637,0.636,0.955,1.512,0.955,2.627
			c0,1.15-0.397,2.039-1.189,2.666c-0.794,0.627-1.922,0.941-3.386,0.941c-1.359,0-2.666-0.279-3.921-0.837v-1.176
			c1.324,0.627,2.588,0.94,3.79,0.94c2.23,0,3.347-0.845,3.347-2.535c0-0.802-0.235-1.438-0.706-1.908
			c-0.471-0.471-1.299-0.88-2.483-1.229c-1.481-0.436-2.531-0.959-3.15-1.568c-0.618-0.61-0.928-1.412-0.928-2.405
			c0-1.08,0.379-1.917,1.138-2.51C444.426,155.243,445.511,154.946,446.922,154.946z"/>
		<path fill="#FFFFFF" stroke="#FFFFFF" stroke-miterlimit="10" d="M473.116,150.581c-1.029,0-1.848,0.287-2.458,0.862
			c-0.609,0.575-0.914,1.351-0.914,2.326c0,1.012,0.239,1.853,0.719,2.523c0.479,0.671,1.276,1.285,2.392,1.843
			c1.777,0.836,3.006,1.699,3.686,2.588s1.02,2.057,1.02,3.503c0,1.568-0.423,2.767-1.268,3.594
			c-0.846,0.828-2.062,1.242-3.646,1.242c-1.499,0-2.867-0.409-4.104-1.229v-1.386c1.324,0.993,2.719,1.49,4.183,1.49
			c1.115,0,1.974-0.314,2.575-0.941c0.601-0.627,0.901-1.551,0.901-2.771c0-1.115-0.253-2.026-0.758-2.732
			c-0.506-0.705-1.411-1.372-2.719-1.999c-1.551-0.732-2.657-1.547-3.319-2.444c-0.663-0.897-0.994-1.991-0.994-3.281
			c0-1.307,0.419-2.353,1.255-3.137c0.837-0.784,1.97-1.176,3.398-1.176c1.342,0,2.666,0.271,3.974,0.811v1.333
			C475.747,150.921,474.44,150.581,473.116,150.581z"/>
		<path fill="#FFFFFF" stroke="#FFFFFF" stroke-miterlimit="10" d="M486.029,154.946c1.533,0,2.671,0.54,3.411,1.621
			c0.741,1.08,1.111,2.823,1.111,5.228c0,0.244-0.009,0.41-0.026,0.497H482.5c0.018,1.986,0.357,3.434,1.02,4.339
			c0.662,0.906,1.655,1.359,2.98,1.359c1.098,0,2.248-0.261,3.45-0.784v1.15c-1.237,0.471-2.404,0.706-3.503,0.706
			c-3.538,0-5.307-2.353-5.307-7.059c0-2.439,0.401-4.226,1.203-5.358C483.144,155.513,484.373,154.946,486.029,154.946z
			 M482.5,161.22h6.719c-0.018-1.951-0.313-3.307-0.889-4.064s-1.343-1.137-2.301-1.137c-1.168,0-2.03,0.4-2.588,1.202
			S482.569,159.355,482.5,161.22z"/>
		<path fill="#FFFFFF" stroke="#FFFFFF" stroke-miterlimit="10" d="M493.426,155.783c0.941-0.558,2.03-0.837,3.268-0.837
			c1.186,0,1.987,0.227,2.405,0.68c0.749-0.453,1.604-0.68,2.562-0.68c1.133,0,1.917,0.235,2.353,0.706s0.654,1.324,0.654,2.562
			v10.587h-1.281v-10.587c0-0.837-0.127-1.407-0.379-1.712c-0.253-0.305-0.711-0.458-1.372-0.458c-0.785,0-1.43,0.184-1.935,0.549
			v12.208h-1.281v-11.554c0-0.419-0.131-0.724-0.392-0.915c-0.262-0.191-0.715-0.288-1.359-0.288c-0.732,0-1.377,0.166-1.935,0.497
			v12.26h-1.308V155.783z"/>
		<path fill="#FFFFFF" stroke="#FFFFFF" stroke-miterlimit="10" d="M508.536,155.208h4.967v13.593h-1.359v-12.521h-3.607V155.208z
			 M511.882,151.94v-3.007h1.62v3.007H511.882z"/>
		<path fill="#FFFFFF" stroke="#FFFFFF" stroke-miterlimit="10" d="M520.744,155.913c1.255-0.645,2.648-0.967,4.183-0.967
			c1.76,0,2.984,0.322,3.673,0.967c0.688,0.646,1.032,1.761,1.032,3.347v9.541h-1.307v-9.541c0-1.186-0.249-2.018-0.745-2.497
			c-0.497-0.479-1.382-0.719-2.653-0.719c-1.063,0-2.013,0.235-2.85,0.706v12.051h-1.333V155.913z"/>
		<path fill="#FFFFFF" stroke="#FFFFFF" stroke-miterlimit="10" d="M538.258,154.946c1.689,0,2.822,0.301,3.397,0.902
			c0.575,0.601,0.863,1.825,0.863,3.672v8.705c-1.186,0.558-2.519,0.837-4,0.837c-1.551,0-2.754-0.37-3.607-1.111
			c-0.854-0.74-1.28-1.781-1.28-3.124c0-1.342,0.51-2.444,1.529-3.307c1.019-0.862,2.714-1.294,5.084-1.294h0.941v-0.967
			c0-1.324-0.188-2.191-0.563-2.602c-0.375-0.409-1.163-0.614-2.365-0.614c-1.395,0-2.736,0.279-4.026,0.837v-1.15
			C535.556,155.208,536.899,154.946,538.258,154.946z M541.186,161.272h-0.941c-3.521,0-5.28,1.186-5.28,3.555
			c0,1.011,0.309,1.791,0.928,2.34c0.618,0.549,1.494,0.823,2.627,0.823c1.028,0,1.917-0.183,2.667-0.549V161.272z"/>
		<path fill="#FFFFFF" stroke="#FFFFFF" stroke-miterlimit="10" d="M555.641,156.044c-2.283,0-4.453,0.306-6.509,0.915v11.842
			h-1.333v-12.652c2.457-0.801,5.071-1.202,7.842-1.202V156.044z"/>
	</g>
</g>
<rect fill="none" width="779.528" height="212.599"/>
</svg>
